<?xml version="1.0" standalone="no"?>
<!DOCTYPE svg PUBLIC "-//W3C//DTD SVG 20010904//EN"
 "http://www.w3.org/TR/2001/REC-SVG-20010904/DTD/svg10.dtd">
<svg version="1.0" xmlns="http://www.w3.org/2000/svg"
 width="512.000000pt" height="512.000000pt" viewBox="0 0 512.000000 512.000000"
 preserveAspectRatio="xMidYMid meet">

<g transform="translate(0.000000,512.000000) scale(0.100000,-0.100000)"
fill="#0d6efd" stroke="none">
<path d="M4306 4235 c-43 -9 -108 -28 -145 -43 -36 -16 -689 -389 -1451 -829
-762 -440 -1395 -805 -1408 -812 -20 -11 -70 5 -426 133 -222 80 -406 146
-410 146 -11 0 -296 -193 -296 -201 0 -9 817 -676 855 -697 51 -29 234 -23
375 12 334 83 915 329 1448 613 l132 71 0 -91 c0 -89 -17 -1196 -23 -1504 -2
-84 1 -153 5 -153 11 0 371 208 384 223 7 7 143 471 304 1032 161 561 296
1027 300 1035 5 8 149 96 322 195 380 218 494 293 574 377 135 140 148 261 41
365 -114 112 -369 168 -581 128z"/>
<path d="M1463 3927 c-106 -61 -193 -115 -193 -118 0 -4 220 -129 489 -279
l490 -272 380 218 c208 121 376 222 373 225 -6 5 -1336 340 -1344 339 -2 -1
-90 -51 -195 -113z"/>
</g>
</svg>
